2014030_C4_03_grf
version=1
nRows=27
nColumns=19
inDegrees=no
endheader
time	ground_force_1_vx	ground_force_1_vy	ground_force_1_vz	ground_force_1_px	ground_force_1_py	ground_force_1_pz	ground_force_1_mx	ground_force_1_my	ground_force_1_mz	ground_force_2_vx	ground_force_2_vy	ground_force_2_vz	ground_force_2_px	ground_force_2_py	ground_force_2_pz	ground_force_2_mx	ground_force_2_my	ground_force_2_mz
      0.87000000	      0.00000000	      0.00000000	      0.00000000	      0.00000000	      0.00000000	      0.00000000	      0.00000000	      0.00000000	      0.00000000	    -26.76162124	    520.56431770	     11.48981005	      0.82651240	     -0.00200000	     -0.29637183	      0.00000000	      1.28543164	      0.00000000
      0.87100000	      0.00000000	      0.00000000	      0.00000000	      0.00000000	      0.00000000	      0.00000000	      0.00000000	      0.00000000	      0.00000000	    -26.68867260	    519.63993907	     11.45376153	      0.82721276	     -0.00200000	     -0.29634346	      0.00000000	      1.28301870	      0.00000000
      0.87200000	      0.00000000	      0.00000000	      0.00000000	      0.00000000	      0.00000000	      0.00000000	      0.00000000	      0.00000000	      0.00000000	    -26.61463618	    518.73073727	     11.41732782	      0.82790881	     -0.00200000	     -0.29631575	      0.00000000	      1.28039272	      0.00000000
      0.87300000	      0.00000000	      0.00000000	      0.00000000	      0.00000000	      0.00000000	      0.00000000	      0.00000000	      0.00000000	      0.00000000	    -26.53903887	    517.84109324	     11.38026565	      0.82859920	     -0.00200000	     -0.29628891	      0.00000000	      1.27748248	      0.00000000
      0.87400000	      0.00000000	      0.00000000	      0.00000000	      0.00000000	      0.00000000	      0.00000000	      0.00000000	      0.00000000	      0.00000000	    -26.46203525	    516.96761698	     11.34258434	      0.82928484	     -0.00200000	     -0.29626280	      0.00000000	      1.27433219	      0.00000000
      0.87500000	      0.00000000	      0.00000000	      0.00000000	      0.00000000	      0.00000000	      0.00000000	      0.00000000	      0.00000000	      0.00000000	    -26.38307679	    516.11497626	     11.30399033	      0.82996428	     -0.00200000	     -0.29623765	      0.00000000	      1.27087029	      0.00000000
      0.87600000	      0.00000000	      0.00000000	      0.00000000	      0.00000000	      0.00000000	      0.00000000	      0.00000000	      0.00000000	      0.00000000	    -26.30239725	    515.27949423	     11.26456186	      0.83063856	     -0.00200000	     -0.29621333	      0.00000000	      1.26715050	      0.00000000
      0.87700000	      0.00000000	      0.00000000	      0.00000000	      0.00000000	      0.00000000	      0.00000000	      0.00000000	      0.00000000	      0.00000000	    -26.21937636	    514.46591690	     11.22397669	      0.83130615	     -0.00200000	     -0.29619011	      0.00000000	      1.26309895	      0.00000000
      0.87800000	      0.00000000	      0.00000000	      0.00000000	      0.00000000	      0.00000000	      0.00000000	      0.00000000	      0.00000000	      0.00000000	    -26.13433637	    513.67043704	     11.18238941	      0.83196814	     -0.00200000	     -0.29616782	      0.00000000	      1.25877316	      0.00000000
      0.87900000	      0.00000000	      0.00000000	      0.00000000	      0.00000000	      0.00000000	      0.00000000	      0.00000000	      0.00000000	      0.00000000	    -26.04660112	    512.89808750	     11.13947108	      0.83262290	     -0.00200000	     -0.29614676	      0.00000000	      1.25409355	      0.00000000
      0.88000000	      0.00000000	      0.00000000	      0.00000000	      0.00000000	      0.00000000	      0.00000000	      0.00000000	      0.00000000	      0.00000000	    -25.95657669	    512.14472204	     11.09543517	      0.83327166	     -0.00200000	     -0.29612675	      0.00000000	      1.24912326	      0.00000000
      0.88100000	      0.00000000	      0.00000000	      0.00000000	      0.00000000	      0.00000000	      0.00000000	      0.00000000	      0.00000000	      0.00000000	    -25.86351614	    511.41568646	     11.04995385	      0.83391264	     -0.00200000	     -0.29610809	      0.00000000	      1.24378531	      0.00000000
      0.88200000	      0.00000000	      0.00000000	      0.00000000	      0.00000000	      0.00000000	      0.00000000	      0.00000000	      0.00000000	      0.00000000	    -25.76788887	    510.70652157	     11.00328788	      0.83454718	     -0.00200000	     -0.29609056	      0.00000000	      1.23815260	      0.00000000
      0.88300000	      0.00000000	      0.00000000	      0.00000000	      0.00000000	      0.00000000	      0.00000000	      0.00000000	      0.00000000	      0.00000000	    -25.66888556	    510.02270356	     10.95511764	      0.83517340	     -0.00200000	     -0.29607451	     -0.00000000	      1.23215132	      0.00000000
      0.88400000	      0.00000000	      0.00000000	      0.00000000	      0.00000000	      0.00000000	      0.00000000	      0.00000000	      0.00000000	      0.00000000	    -25.56704916	    509.35953856	     10.90573817	      0.83579275	     -0.00200000	     -0.29605969	      0.00000000	      1.22585521	      0.00000000
      0.88500000	      0.00000000	      0.00000000	      0.00000000	      0.00000000	      0.00000000	      0.00000000	      0.00000000	      0.00000000	      0.00000000	    -25.46150424	    508.72268528	     10.85485667	      0.83640327	     -0.00200000	     -0.29604643	      0.00000000	      1.21919075	      0.00000000
      0.88600000	      0.00000000	      0.00000000	      0.00000000	      0.00000000	      0.00000000	      0.00000000	      0.00000000	      0.00000000	      0.00000000	    -25.35285987	    508.10716301	     10.80279723	      0.83700655	     -0.00200000	     -0.29603450	      0.00000000	      1.21223102	      0.00000000
      0.88700000	      0.00000000	      0.00000000	      0.00000000	      0.00000000	      0.00000000	      0.00000000	      0.00000000	      0.00000000	      0.00000000	    -25.24018008	    507.51868263	     10.74932106	      0.83760054	     -0.00200000	     -0.29602423	      0.00000000	      1.20490294	      0.00000000
      0.88800000	      0.00000000	      0.00000000	      0.00000000	      0.00000000	      0.00000000	      0.00000000	      0.00000000	      0.00000000	      0.00000000	    -25.12414753	    506.95215911	     10.69476753	      0.83818691	     -0.00200000	     -0.29601532	      0.00000000	      1.19728140	      0.00000000
      0.88900000	      0.00000000	      0.00000000	      0.00000000	      0.00000000	      0.00000000	      0.00000000	      0.00000000	      0.00000000	      0.00000000	    -25.00378899	    506.41335547	     10.63895188	      0.83876359	     -0.00200000	     -0.29600814	      0.00000000	      1.18929552	      0.00000000
      0.89000000	      0.00000000	      0.00000000	      0.00000000	      0.00000000	      0.00000000	      0.00000000	      0.00000000	      0.00000000	      0.00000000	    -24.87988025	    505.89697808	     10.58220193	      0.83933235	     -0.00200000	     -0.29600234	      0.00000000	      1.18102062	      0.00000000
      0.89100000	      0.00000000	      0.00000000	      0.00000000	      0.00000000	      0.00000000	      0.00000000	      0.00000000	      0.00000000	      0.00000000	    -24.75144435	    505.40894642	     10.52438766	      0.83989106	     -0.00200000	     -0.29599826	      0.00000000	      1.17238696	      0.00000000
      0.89200000	      0.00000000	      0.00000000	      0.00000000	      0.00000000	      0.00000000	      0.00000000	      0.00000000	      0.00000000	      0.00000000	    -24.61932227	    504.94370610	     10.46581194	      0.84044162	     -0.00200000	     -0.29599560	      0.00000000	      1.16346902	      0.00000000
      0.89300000	      0.00000000	      0.00000000	      0.00000000	      0.00000000	      0.00000000	      0.00000000	      0.00000000	      0.00000000	      0.00000000	    -24.48252961	    504.50720266	     10.40640771	      0.84098189	     -0.00200000	     -0.29599470	      0.00000000	      1.15420123	      0.00000000
      0.89400000	      0.00000000	      0.00000000	      0.00000000	      0.00000000	      0.00000000	      0.00000000	      0.00000000	      0.00000000	      0.00000000	    -24.34195764	    504.09369916	     10.34645289	      0.84151384	     -0.00200000	     -0.29599522	      0.00000000	      1.14465988	      0.00000000
      0.89500000	      0.00000000	      0.00000000	      0.00000000	      0.00000000	      0.00000000	      0.00000000	      0.00000000	      0.00000000	      0.00000000	    -24.19662569	    503.70911509	     10.28596908	      0.84203532	     -0.00200000	     -0.29599751	      0.00000000	      1.13478914	      0.00000000
      0.89600000	      0.00000000	      0.00000000	      0.00000000	      0.00000000	      0.00000000	      0.00000000	      0.00000000	      0.00000000	      0.00000000	    -24.04746227	    503.34763527	     10.22519767	      0.84254839	     -0.00200000	     -0.29600125	      0.00000000	      1.12466471	      0.00000000
